<svg width="128" height="128" viewBox="0 0 128 128" fill="none" xmlns="http://www.w3.org/2000/svg">
<g clip-path="url(#clip0_2:6)">
<path d="M63.0519 116.859L5.68889 75.1407C4.97778 74.6667 4.26667 73.7185 4.02963 72.7704C3.79259 71.8222 3.79259 70.8741 4.02963 69.9259L10.6667 49.7778L63.0519 116.859ZM28.2074 9.24444L41.2444 49.7778H10.6667L23.7037 9.24444C23.9407 8.29629 24.8889 7.82222 25.837 7.82222C27.2593 7.58518 27.9704 8.29629 28.2074 9.24444ZM41.2444 49.7778H84.8593L63.0519 116.859L41.2444 49.7778ZM122.311 70.163C122.548 71.1111 122.548 72.0593 122.311 73.0074C122.074 73.9556 121.363 74.6667 120.652 75.3778L63.0519 116.859L115.437 49.7778L122.311 70.163ZM115.437 49.7778H85.0963L98.1333 9.24444C98.3704 8.29629 99.3185 7.82222 100.267 7.82222C101.452 7.82222 102.163 8.29629 102.4 9.24444L115.437 49.7778Z" fill="white"/>
</g>
<defs>
<clipPath id="clip0_2:6">
<rect width="128" height="128" fill="white"/>
</clipPath>
</defs>
</svg>
