<svg width="128" height="76" viewBox="0 0 128 76" fill="none" xmlns="http://www.w3.org/2000/svg">
<path fill-rule="evenodd" clip-rule="evenodd" d="M18.8044 0H4.8012C0.800241 0 0 1.8832 0 3.9592C0 7.6676 4.74744 26.0592 22.1048 50.3836C33.6764 66.9952 49.9796 76 64.8152 76C73.7164 76 74.8176 74 74.8176 70.5552V58C74.8176 54 75.6608 53.2016 78.4792 53.2016C80.5564 53.2016 84.1168 54.24 92.4247 62.2492C101.92 71.7416 103.485 76 108.825 76H122.828C126.83 76 128.83 74 127.676 70.0532C126.413 66.1196 121.88 60.412 115.865 53.6468C112.601 49.7904 107.705 45.6376 106.222 43.5608C104.145 40.8912 104.738 39.7044 106.222 37.3316C106.222 37.3316 123.282 13.3036 125.063 5.1464C125.953 2.1796 125.063 0 120.828 0H106.825C103.264 0 101.623 1.8832 100.732 3.9592C100.732 3.9592 93.6115 21.3128 83.5236 32.5852C80.2596 35.848 78.776 36.8864 76.9956 36.8864C76.1056 36.8864 74.8172 35.848 74.8172 32.882V5.1464C74.8172 1.5864 73.784 0 70.8164 0H48.8112C46.5864 0 45.248 1.652 45.248 3.218C45.248 6.5924 50.292 7.37079 50.812 16.8632V37.48C50.812 42 49.9952 42.8196 48.2152 42.8196C43.468 42.8196 31.9204 25.3884 25.0716 5.4428C23.7296 1.566 22.3832 0 18.8044 0V0Z" fill="white"/>
</svg>
